<?xml version="1.0" encoding="utf-8"?>
<!-- Generator: Adobe Illustrator 16.0.0, SVG Export Plug-In . SVG Version: 6.00 Build 0)  -->
<!DOCTYPE svg PUBLIC "-//W3C//DTD SVG 1.1//EN" "http://www.w3.org/Graphics/SVG/1.1/DTD/svg11.dtd">
<svg version="1.1" id="Layer_1" xmlns="http://www.w3.org/2000/svg" xmlns:xlink="http://www.w3.org/1999/xlink" x="0px" y="0px"
	 width="430.5px" height="67px" viewBox="0 0 430.5 67" enable-background="new 0 0 430.5 67" xml:space="preserve">
<g>
	<g>
		<path fill="#FF0000" stroke="#000000" stroke-width="2" stroke-miterlimit="10" d="M385.214,21.404
			c-0.285-2.678-9.464-7.02-9.464-13.13c0-2.586,2.094-4.68,4.68-4.68c2.645,0,4.784,2.14,4.784,4.784"/>
		<path fill="#FF0000" stroke="#000000" stroke-width="2" stroke-miterlimit="10" d="M385.214,21.404
			c0.285-2.678,9.464-7.02,9.464-13.13c0-2.586-2.094-4.68-4.68-4.68c-2.645,0-4.784,2.14-4.784,4.784"/>
	</g>
	<g>
		<rect x="382.5" y="37" stroke="#000000" stroke-miterlimit="10" width="34" height="20"/>
		<rect x="382.5" y="23" stroke="#000000" stroke-miterlimit="10" width="5" height="9"/>
		<polygon stroke="#000000" stroke-miterlimit="10" points="400.363,14.5 377.76,37 400.363,37 422.966,37 		"/>
		<rect x="404.5" y="46" fill="#FFFFFF" stroke="#000000" stroke-miterlimit="10" width="7" height="11"/>
	</g>
	<text transform="matrix(1 0 0 1 1 57)"><tspan x="0" y="0" fill="#0071BC" font-family="'MyriadPro-Regular'" font-size="36">DMS</tspan><tspan x="70.667" y="0" fill="#ED1E79" font-family="'MyriadPro-Regular'" font-size="36">upportCoordination</tspan></text>
</g>
</svg>
